<?xml version="1.0" encoding="UTF-8" standalone="no" ?>
<!DOCTYPE svg PUBLIC "-//W3C//DTD SVG 1.1//EN" "http://www.w3.org/Graphics/SVG/1.1/DTD/svg11.dtd">
<svg xmlns="http://www.w3.org/2000/svg" xmlns:xlink="http://www.w3.org/1999/xlink" version="1.1" width="1080" height="1080" viewBox="0 0 1080 1080" xml:space="preserve">
<desc>Created with Fabric.js 5.2.4</desc>
<defs>
</defs>
<rect x="0" y="0" width="100%" height="100%" fill="transparent"></rect>
<g transform="matrix(1 0 0 1 540 540)" id="723f0f79-12e4-40bc-a5b4-530844feab3e"  >
<rect style="stroke: none; stroke-width: 1; stroke-dasharray: none; stroke-linecap: butt; stroke-dashoffset: 0; stroke-linejoin: miter; stroke-miterlimit: 4; fill: rgb(255,255,255); fill-rule: nonzero; opacity: 1; visibility: hidden;" vector-effect="non-scaling-stroke"  x="-540" y="-540" rx="0" ry="0" width="1080" height="1080" />
</g>
<g transform="matrix(1 0 0 1 540 540)" id="ccfdf28a-4223-4eb5-97c6-7527be7c3986"  >
</g>
<g transform="matrix(0.6 0 0 0.6 540 601.86)" style="filter: url(#SVGID_136);" id="6a21f198-bba1-44d3-a972-751bd0b45bf0"  >
<filter id="SVGID_136" y="-22%" height="144%" x="-21%" width="142%" >
	<feGaussianBlur in="SourceAlpha" stdDeviation="3"></feGaussianBlur>
	<feOffset dx="0" dy="0" result="oBlur" ></feOffset>
	<feFlood flood-color="rgb(247,243,243)" flood-opacity="1"/>
	<feComposite in2="oBlur" operator="in" />
	<feMerge>
		<feMergeNode></feMergeNode>
		<feMergeNode in="SourceGraphic"></feMergeNode>
	</feMerge>
</filter>
		<text xml:space="preserve" font-family="Raleway" font-size="123" font-style="normal" font-weight="900" style="stroke: none; stroke-width: 1; stroke-dasharray: none; stroke-linecap: butt; stroke-dashoffset: 0; stroke-linejoin: miter; stroke-miterlimit: 4; fill: rgb(245,238,238); fill-rule: nonzero; opacity: 1; white-space: pre;" ><tspan x="-502.39" y="-30.86" >F</tspan><tspan x="-425.4" y="-30.86" >a</tspan><tspan x="-340.65" y="-30.86" >k</tspan><tspan x="-261.19" y="-30.86" >e</tspan><tspan x="-175.21" y="-30.86" style="white-space: pre; "> </tspan><tspan x="-136.47" y="-30.86" >C</tspan><tspan x="-41.02" y="-30.86" >o</tspan><tspan x="45.57" y="-30.86" >m</tspan><tspan x="172.26" y="-30.86" >p</tspan><tspan x="262.91" y="-30.86" >a</tspan><tspan x="347.66" y="-30.86" >n</tspan><tspan x="434.13" y="-30.86" >y</tspan><tspan x="-104.24" y="108.13" >I</tspan><tspan x="-54.18" y="108.13" >n</tspan><tspan x="33.27" y="108.13" >c</tspan></text>
</g>
</svg>