<svg xmlns="http://www.w3.org/2000/svg" xmlns:xlink="http://www.w3.org/1999/xlink" viewBox="0 0 275 275"><defs><style>.cls-1{isolation:isolate;}.cls-2{fill:#253858;}.cls-3{fill:url(#New_Gradient_Swatch_12);}.cls-4{fill:#0065ff;}.cls-5,.cls-6,.cls-7,.cls-8,.cls-9{mix-blend-mode:multiply;}.cls-5{fill:url(#linear-gradient);}.cls-6{fill:url(#linear-gradient-2);}.cls-7{fill:url(#linear-gradient-3);}.cls-8{fill:url(#linear-gradient-4);}.cls-9{fill:url(#linear-gradient-5);}.cls-10{fill:url(#linear-gradient-6);}.cls-11{fill:#fff;}</style><linearGradient id="New_Gradient_Swatch_12" x1="60.241" y1="223.446" x2="214.758" y2="68.929" gradientUnits="userSpaceOnUse"><stop offset="0" stop-color="#00b8d9"/><stop offset="1" stop-color="#79e2f2"/></linearGradient><linearGradient id="linear-gradient" x1="61.632" y1="212.888" x2="335.994" y2="212.888" gradientUnits="userSpaceOnUse"><stop offset="0" stop-color="#c1c7d0"/><stop offset="0.315" stop-color="#c1c7d0" stop-opacity="0"/></linearGradient><linearGradient id="linear-gradient-2" x1="61.632" y1="162.015" x2="335.994" y2="162.015" xlink:href="#linear-gradient"/><linearGradient id="linear-gradient-3" x1="61.632" y1="222.973" x2="335.994" y2="222.973" xlink:href="#linear-gradient"/><linearGradient id="linear-gradient-4" x1="61.632" y1="208.832" x2="335.994" y2="208.832" xlink:href="#linear-gradient"/><linearGradient id="linear-gradient-5" x1="61.632" y1="216.477" x2="335.994" y2="216.477" xlink:href="#linear-gradient"/><linearGradient id="linear-gradient-6" x1="133.353" y1="2787.251" x2="117.824" y2="2760.354" gradientTransform="matrix(1, 0, 0, -1, 0, 2932)" gradientUnits="userSpaceOnUse"><stop offset="0" stop-color="#fff" stop-opacity="0.4"/><stop offset="0.92" stop-color="#fff"/></linearGradient></defs><title>PAAT</title><g class="cls-1"><g id="Values"><path class="cls-2" d="M175.139,77.985c-.477-10.658,5.111-22.833,12.531-30.253.785-.785,1.618-1.531,2.476-2.253L173.215,39h-.067a46.951,46.951,0,0,1-70.969,0h-.394L82.972,46.2v.763a46.013,46.013,0,0,1,14.3,31.568c.477,10.658-5.111,22.833-12.531,30.253a44.264,44.264,0,0,1-22.69,11.792v104.68a105.791,105.791,0,0,1,42.552-5.784c29.835,2.264,42.332,16.947,69.579,16.519,15.5-.243,28.669-5.265,38.766-10.735V120.473C191.519,117.977,176.1,99.531,175.139,77.985Z"/><path id="_Path_" data-name="&lt;Path&gt;" class="cls-3" d="M212.944,109.922h0a20.916,20.916,0,0,1-20.917-20.916V46.2L173.215,39h-.526c-4.119,19.411-35.162,45.031-35.162,45.031S106.485,58.411,102.367,39h-.582L82.968,46.2V89.006a20.916,20.916,0,0,1-20.917,20.916h0V225.256c10.1,5.47,23.268,10.492,38.766,10.735,27.247.428,39.744-14.255,69.579-16.519a105.792,105.792,0,0,1,42.552,5.784V109.922Z"/><path class="cls-4" d="M170.475,199.673a105.657,105.657,0,0,1,42.147,5.734.99.99,0,0,0,.327.042V203.41a107.525,107.525,0,0,0-42.625-5.731A95.5,95.5,0,0,0,150,201.459c.558.532,1.1,1.068,1.641,1.6A93.256,93.256,0,0,1,170.475,199.673Z"/><path class="cls-4" d="M212.949,211.919a107.523,107.523,0,0,0-42.625-5.731,94.361,94.361,0,0,0-13.71,2.051c.517.569,1.019,1.14,1.521,1.711a92.519,92.519,0,0,1,12.34-1.768,105.669,105.669,0,0,1,42.147,5.734.99.99,0,0,0,.327.042Z"/><path class="cls-4" d="M132.585,90.625,137.5,94.68l4.915-4.055c3.592-2.964,32.656-27.5,37.676-48.994l-1.88-.719c-4.585,20.822-33.517,45.24-37.068,48.17L137.5,92.087l-3.643-3.005c-3.551-2.93-32.483-27.349-37.068-48.17l-1.88.719C99.929,63.124,128.993,87.661,132.585,90.625Z"/><path class="cls-5" d="M62.525,212.09c12.649,6.839,25.54,10.41,38.315,10.615,14,.223,24.088-3.622,34.756-7.687a149.318,149.318,0,0,1,21.018-6.778q-2.373-2.611-4.976-5.177c-5.486,1.565-10.45,3.455-15.33,5.314-10.556,4.022-20.543,7.828-34.326,7.828q-.582,0-1.174-.009c-12.938-.207-25.974-3.779-38.757-10.605v6.393A.974.974,0,0,1,62.525,212.09Z"/><path class="cls-6" d="M62.525,203.581c12.65,6.839,25.541,10.411,38.315,10.615,14,.228,24.088-3.622,34.756-7.687,4.6-1.754,9.283-3.532,14.4-5.05a123.616,123.616,0,0,0-21.86-16.665c-15.231-9.109-23.23-9.353-33.554-16.459-12.34-8.492-25.065-24.794-30.608-58.51-.246.022-.5.024-.745.038-.272.019-.546.033-.822.042-.12,0-.236.018-.357.018v93.552A.974.974,0,0,1,62.525,203.581Z"/><path class="cls-7" d="M101.982,224.714c-.389,0-.779,0-1.174-.009-12.939-.208-25.975-3.78-38.757-10.605v8.957q.007,1.1.014,2.207c10.095,5.466,23.258,10.483,38.748,10.728h.2c.66.009,1.31.006,1.953,0,24.361-.429,36.987-13.023,63.123-16.118-2.41-3.294-5.061-6.621-7.959-9.92a142.625,142.625,0,0,0-21.826,6.936C125.753,220.908,115.765,224.714,101.982,224.714Z"/><path class="cls-4" d="M101.982,216.2c13.783,0,23.77-3.805,34.326-7.828,4.88-1.86,9.844-3.75,15.33-5.314-.543-.536-1.084-1.072-1.641-1.6-5.117,1.518-9.8,3.3-14.4,5.05-10.668,4.065-20.758,7.916-34.756,7.688-12.774-.2-25.665-3.776-38.315-10.615a.974.974,0,0,0-.474-.106v2.116c12.783,6.826,25.819,10.4,38.757,10.605Q101.4,216.2,101.982,216.2Z"/><path class="cls-8" d="M101.982,216.2c13.783,0,23.77-3.805,34.326-7.828,4.88-1.86,9.844-3.75,15.33-5.314-.543-.536-1.084-1.072-1.641-1.6-5.117,1.518-9.8,3.3-14.4,5.05-10.668,4.065-20.758,7.916-34.756,7.688-12.774-.2-25.665-3.776-38.315-10.615a.974.974,0,0,0-.474-.106v2.116c12.783,6.826,25.819,10.4,38.757,10.605Q101.4,216.2,101.982,216.2Z"/><path class="cls-4" d="M135.6,215.018c-10.668,4.065-20.758,7.91-34.756,7.688-12.775-.205-25.666-3.776-38.315-10.615a.974.974,0,0,0-.474-.106V214.1c12.782,6.826,25.818,10.4,38.757,10.605.4.006.785.009,1.174.009,13.782,0,23.771-3.806,34.326-7.828a142.625,142.625,0,0,1,21.826-6.936c-.5-.571-1-1.142-1.521-1.711A149.318,149.318,0,0,0,135.6,215.018Z"/><path class="cls-9" d="M135.6,215.018c-10.668,4.065-20.758,7.91-34.756,7.688-12.775-.205-25.666-3.776-38.315-10.615a.974.974,0,0,0-.474-.106V214.1c12.782,6.826,25.818,10.4,38.757,10.605.4.006.785.009,1.174.009,13.782,0,23.771-3.806,34.326-7.828a142.625,142.625,0,0,1,21.826-6.936c-.5-.571-1-1.142-1.521-1.711A149.318,149.318,0,0,0,135.6,215.018Z"/><g id="Layer_2" data-name="Layer 2"><g id="Blue"><path class="cls-10" d="M125.288,140.207a1.7,1.7,0,0,0-2.9.329l-14.713,29.409a1.758,1.758,0,0,0,1.574,2.545h20.487a1.7,1.7,0,0,0,1.574-.988C135.724,162.386,133.047,148.5,125.288,140.207Z"/><path class="cls-11" d="M136.083,113.444a38.8,38.8,0,0,0-2.265,38.315l9.877,19.753a1.758,1.758,0,0,0,1.574.988h20.487a1.758,1.758,0,0,0,1.574-2.545s-27.562-55.148-28.241-56.521A1.671,1.671,0,0,0,136.083,113.444Z"/></g></g></g></g></svg>