<svg xmlns="http://www.w3.org/2000/svg" xmlns:xlink="http://www.w3.org/1999/xlink" viewBox="0 0 187.13 223.39"><defs><style>.cls-1{fill:#5e6c84;}.cls-2{isolation:isolate;}.cls-3{clip-path:url(#clip-path);}.cls-4{fill:#344563;}.cls-5{fill:url(#New_Gradient_Swatch_15);}.cls-6{fill:#ffe380;}.cls-7{fill:url(#New_Gradient_Swatch_5);}.cls-8{opacity:0.62;mix-blend-mode:multiply;fill:url(#New_Gradient_Swatch_7);}.cls-9{fill:#0052cc;}.cls-10{fill:url(#New_Gradient_Swatch_15-2);}.cls-11{fill:#fff;stroke:#fff;}.cls-11,.cls-13{stroke-linejoin:round;stroke-width:2px;}.cls-12{fill:url(#linear-gradient);}.cls-13{fill:none;stroke:#42526e;}</style><clipPath id="clip-path"><path id="_Rectangle_" data-name="&lt;Rectangle&gt;" class="cls-1" d="M93.56,12h0A8.45,8.45,0,0,1,102,20.49V210.44a0,0,0,0,1,0,0H85.11a0,0,0,0,1,0,0V20.49A8.45,8.45,0,0,1,93.56,12Z"/></clipPath><linearGradient id="New_Gradient_Swatch_15" x1="25.61" y1="213.07" x2="161.1" y2="213.07" gradientUnits="userSpaceOnUse"><stop offset="0" stop-color="#0065ff"/><stop offset="1" stop-color="#4c9aff"/></linearGradient><linearGradient id="New_Gradient_Swatch_5" y1="149.24" x2="168.91" y2="149.24" gradientUnits="userSpaceOnUse"><stop offset="0" stop-color="#ff991f"/><stop offset="1" stop-color="#ffc400"/></linearGradient><linearGradient id="New_Gradient_Swatch_7" x1="-18.17" y1="145.09" x2="166.19" y2="145.09" gradientUnits="userSpaceOnUse"><stop offset="0" stop-color="#ffc400"/><stop offset="1" stop-color="#fff0b2"/></linearGradient><linearGradient id="New_Gradient_Swatch_15-2" x1="18.22" y1="70.95" x2="187.13" y2="70.95" xlink:href="#New_Gradient_Swatch_15"/><linearGradient id="linear-gradient" x1="24.11" y1="213.07" x2="160.38" y2="213.07" gradientUnits="userSpaceOnUse"><stop offset="0" stop-color="#0052cc"/><stop offset="0.76" stop-color="#2684ff"/></linearGradient></defs><title>DevicesBTCYS</title><g class="cls-2"><g id="Layer_2" data-name="Layer 2"><g id="Values"><path id="_Rectangle_2" data-name="&lt;Rectangle&gt;" class="cls-1" d="M93.56,12h0A8.45,8.45,0,0,1,102,20.49V210.44a0,0,0,0,1,0,0H85.11a0,0,0,0,1,0,0V20.49A8.45,8.45,0,0,1,93.56,12Z"/><g class="cls-3"><rect class="cls-4" x="85.11" width="8.24" height="223.39"/></g><path id="_Path_" data-name="&lt;Path&gt;" class="cls-5" d="M93.35,203.1a135.45,135.45,0,0,1,67.14,17.69,1.2,1.2,0,0,1-.59,2.24H26.81a1.2,1.2,0,0,1-.59-2.24A135.45,135.45,0,0,1,93.35,203.1Z"/><path id="_Clipping_Path_" data-name="&lt;Clipping Path&gt;" class="cls-6" d="M169.65,182.22h-133a4,4,0,0,1-2.93-1.28L6.81,152a4,4,0,0,1,0-5.45l26.93-29a4,4,0,0,1,2.93-1.28h133a5,5,0,0,1,5,5v56A5,5,0,0,1,169.65,182.22Z"/><path id="_Clipping_Path_2" data-name="&lt;Clipping Path&gt;" class="cls-6" d="M169.51,182.22h-133a4,4,0,0,1-2.93-1.28L6.67,152a4,4,0,0,1,0-5.45l26.93-29a4,4,0,0,1,2.93-1.28h133a5,5,0,0,1,5,5v56A5,5,0,0,1,169.51,182.22Z"/><path id="_Clipping_Path_3" data-name="&lt;Clipping Path&gt;" class="cls-6" d="M169.36,182.22h-133a4,4,0,0,1-2.93-1.28L6.52,152a4,4,0,0,1,0-5.45l26.93-29a4,4,0,0,1,2.93-1.28h133a5,5,0,0,1,5,5v56A5,5,0,0,1,169.36,182.22Z"/><path id="_Clipping_Path_4" data-name="&lt;Clipping Path&gt;" class="cls-6" d="M169.22,182.22h-133a4,4,0,0,1-2.93-1.28L6.38,152a4,4,0,0,1,0-5.45l26.93-29a4,4,0,0,1,2.93-1.28h133a5,5,0,0,1,5,5v56A5,5,0,0,1,169.22,182.22Z"/><path id="_Clipping_Path_5" data-name="&lt;Clipping Path&gt;" class="cls-6" d="M169.08,182.22H36.1a4,4,0,0,1-2.93-1.28L6.24,152a4,4,0,0,1,0-5.45l26.93-29a4,4,0,0,1,2.93-1.28h133a5,5,0,0,1,5,5v56A5,5,0,0,1,169.08,182.22Z"/><path id="_Clipping_Path_6" data-name="&lt;Clipping Path&gt;" class="cls-6" d="M168.93,182.22H36A4,4,0,0,1,33,180.94L6.09,152a4,4,0,0,1,0-5.45l26.93-29A4,4,0,0,1,36,116.27h133a5,5,0,0,1,5,5v56A5,5,0,0,1,168.93,182.22Z"/><path id="_Clipping_Path_7" data-name="&lt;Clipping Path&gt;" class="cls-6" d="M168.79,182.22h-133a4,4,0,0,1-2.93-1.28L6,152a4,4,0,0,1,0-5.45l26.93-29a4,4,0,0,1,2.93-1.28h133a5,5,0,0,1,5,5v56A5,5,0,0,1,168.79,182.22Z"/><path id="_Clipping_Path_8" data-name="&lt;Clipping Path&gt;" class="cls-6" d="M168.65,182.22h-133a4,4,0,0,1-2.93-1.28L5.81,152a4,4,0,0,1,0-5.45l26.93-29a4,4,0,0,1,2.93-1.28h133a5,5,0,0,1,5,5v56A5,5,0,0,1,168.65,182.22Z"/><path id="_Clipping_Path_9" data-name="&lt;Clipping Path&gt;" class="cls-6" d="M168.5,182.22h-133a4,4,0,0,1-2.93-1.28L5.66,152a4,4,0,0,1,0-5.45l26.93-29a4,4,0,0,1,2.93-1.28h133a5,5,0,0,1,5,5v56A5,5,0,0,1,168.5,182.22Z"/><path id="_Clipping_Path_10" data-name="&lt;Clipping Path&gt;" class="cls-6" d="M168.36,182.22h-133a4,4,0,0,1-2.93-1.28L5.52,152a4,4,0,0,1,0-5.45l26.93-29a4,4,0,0,1,2.93-1.28h133a5,5,0,0,1,5,5v56A5,5,0,0,1,168.36,182.22Z"/><path id="_Clipping_Path_11" data-name="&lt;Clipping Path&gt;" class="cls-6" d="M168.22,182.22h-133a4,4,0,0,1-2.93-1.28L5.38,152a4,4,0,0,1,0-5.45l26.93-29a4,4,0,0,1,2.93-1.28h133a5,5,0,0,1,5,5v56A5,5,0,0,1,168.22,182.22Z"/><path id="_Clipping_Path_12" data-name="&lt;Clipping Path&gt;" class="cls-6" d="M168.07,182.22h-133a4,4,0,0,1-2.93-1.28L5.23,152a4,4,0,0,1,0-5.45l26.93-29a4,4,0,0,1,2.93-1.28h133a5,5,0,0,1,5,5v56A5,5,0,0,1,168.07,182.22Z"/><path id="_Clipping_Path_13" data-name="&lt;Clipping Path&gt;" class="cls-6" d="M167.93,182.22h-133A4,4,0,0,1,32,180.94L5.09,152a4,4,0,0,1,0-5.45l26.93-29a4,4,0,0,1,2.93-1.28h133a5,5,0,0,1,5,5v56A5,5,0,0,1,167.93,182.22Z"/><path id="_Clipping_Path_14" data-name="&lt;Clipping Path&gt;" class="cls-6" d="M167.79,182.22H34.8a4,4,0,0,1-2.93-1.28L4.95,152a4,4,0,0,1,0-5.45l26.93-29a4,4,0,0,1,2.93-1.28h133a5,5,0,0,1,5,5v56A5,5,0,0,1,167.79,182.22Z"/><path id="_Clipping_Path_15" data-name="&lt;Clipping Path&gt;" class="cls-6" d="M167.64,182.22h-133a4,4,0,0,1-2.93-1.28L4.8,152a4,4,0,0,1,0-5.45l26.93-29a4,4,0,0,1,2.93-1.28h133a5,5,0,0,1,5,5v56A5,5,0,0,1,167.64,182.22Z"/><path id="_Clipping_Path_16" data-name="&lt;Clipping Path&gt;" class="cls-6" d="M167.5,182.22h-133a4,4,0,0,1-2.93-1.28L4.66,152a4,4,0,0,1,0-5.45l26.93-29a4,4,0,0,1,2.93-1.28h133a5,5,0,0,1,5,5v56A5,5,0,0,1,167.5,182.22Z"/><path id="_Clipping_Path_17" data-name="&lt;Clipping Path&gt;" class="cls-6" d="M167.35,182.22h-133a4,4,0,0,1-2.93-1.28L4.51,152a4,4,0,0,1,0-5.45l26.93-29a4,4,0,0,1,2.93-1.28h133a5,5,0,0,1,5,5v56A5,5,0,0,1,167.35,182.22Z"/><path id="_Clipping_Path_18" data-name="&lt;Clipping Path&gt;" class="cls-6" d="M167.21,182.22h-133a4,4,0,0,1-2.93-1.28L4.37,152a4,4,0,0,1,0-5.45l26.93-29a4,4,0,0,1,2.93-1.28h133a5,5,0,0,1,5,5v56A5,5,0,0,1,167.21,182.22Z"/><path id="_Clipping_Path_19" data-name="&lt;Clipping Path&gt;" class="cls-6" d="M167.07,182.22h-133a4,4,0,0,1-2.93-1.28L4.23,152a4,4,0,0,1,0-5.45l26.93-29a4,4,0,0,1,2.93-1.28h133a5,5,0,0,1,5,5v56A5,5,0,0,1,167.07,182.22Z"/><path id="_Clipping_Path_20" data-name="&lt;Clipping Path&gt;" class="cls-6" d="M166.92,182.22h-133A4,4,0,0,1,31,180.94L4.08,152a4,4,0,0,1,0-5.45l26.93-29a4,4,0,0,1,2.93-1.28h133a5,5,0,0,1,5,5v56A5,5,0,0,1,166.92,182.22Z"/><path id="_Clipping_Path_21" data-name="&lt;Clipping Path&gt;" class="cls-6" d="M166.78,182.22H33.8a4,4,0,0,1-2.93-1.28L3.94,152a4,4,0,0,1,0-5.45l26.93-29a4,4,0,0,1,2.93-1.28h133a5,5,0,0,1,5,5v56A5,5,0,0,1,166.78,182.22Z"/><path id="_Clipping_Path_22" data-name="&lt;Clipping Path&gt;" class="cls-6" d="M166.64,182.22h-133a4,4,0,0,1-2.93-1.28L3.8,152a4,4,0,0,1,0-5.45l26.93-29a4,4,0,0,1,2.93-1.28h133a5,5,0,0,1,5,5v56A5,5,0,0,1,166.64,182.22Z"/><path id="_Clipping_Path_23" data-name="&lt;Clipping Path&gt;" class="cls-6" d="M166.49,182.22h-133a4,4,0,0,1-2.93-1.28L3.65,152a4,4,0,0,1,0-5.45l26.93-29a4,4,0,0,1,2.93-1.28h133a5,5,0,0,1,5,5v56A5,5,0,0,1,166.49,182.22Z"/><path id="_Clipping_Path_24" data-name="&lt;Clipping Path&gt;" class="cls-6" d="M166.35,182.22h-133a4,4,0,0,1-2.93-1.28L3.51,152a4,4,0,0,1,0-5.45l26.93-29a4,4,0,0,1,2.93-1.28h133a5,5,0,0,1,5,5v56A5,5,0,0,1,166.35,182.22Z"/><path id="_Clipping_Path_25" data-name="&lt;Clipping Path&gt;" class="cls-6" d="M166.21,182.22h-133a4,4,0,0,1-2.93-1.28L3.37,152a4,4,0,0,1,0-5.45l26.93-29a4,4,0,0,1,2.93-1.28h133a5,5,0,0,1,5,5v56A5,5,0,0,1,166.21,182.22Z"/><path id="_Clipping_Path_26" data-name="&lt;Clipping Path&gt;" class="cls-6" d="M166.06,182.22h-133a4,4,0,0,1-2.93-1.28L3.22,152a4,4,0,0,1,0-5.45l26.93-29a4,4,0,0,1,2.93-1.28h133a5,5,0,0,1,5,5v56A5,5,0,0,1,166.06,182.22Z"/><path id="_Clipping_Path_27" data-name="&lt;Clipping Path&gt;" class="cls-6" d="M165.92,182.22h-133A4,4,0,0,1,30,180.94L3.08,152a4,4,0,0,1,0-5.45l26.93-29a4,4,0,0,1,2.93-1.28h133a5,5,0,0,1,5,5v56A5,5,0,0,1,165.92,182.22Z"/><path id="_Clipping_Path_28" data-name="&lt;Clipping Path&gt;" class="cls-6" d="M165.78,182.22h-133a4,4,0,0,1-2.93-1.28L2.94,152a4,4,0,0,1,0-5.45l26.93-29a4,4,0,0,1,2.93-1.28h133a5,5,0,0,1,5,5v56A5,5,0,0,1,165.78,182.22Z"/><path id="_Clipping_Path_29" data-name="&lt;Clipping Path&gt;" class="cls-6" d="M165.63,182.22h-133a4,4,0,0,1-2.93-1.28L2.79,152a4,4,0,0,1,0-5.45l26.93-29a4,4,0,0,1,2.93-1.28h133a5,5,0,0,1,5,5v56A5,5,0,0,1,165.63,182.22Z"/><path id="_Clipping_Path_30" data-name="&lt;Clipping Path&gt;" class="cls-6" d="M165.49,182.22h-133a4,4,0,0,1-2.93-1.28L2.65,152a4,4,0,0,1,0-5.45l26.93-29a4,4,0,0,1,2.93-1.28h133a5,5,0,0,1,5,5v56A5,5,0,0,1,165.49,182.22Z"/><path id="_Clipping_Path_31" data-name="&lt;Clipping Path&gt;" class="cls-6" d="M165.34,182.22h-133a4,4,0,0,1-2.93-1.28L2.51,152a4,4,0,0,1,0-5.45l26.93-29a4,4,0,0,1,2.93-1.28h133a5,5,0,0,1,5,5v56A5,5,0,0,1,165.34,182.22Z"/><path id="_Clipping_Path_32" data-name="&lt;Clipping Path&gt;" class="cls-6" d="M165.2,182.22h-133a4,4,0,0,1-2.93-1.28L2.36,152a4,4,0,0,1,0-5.45l26.93-29a4,4,0,0,1,2.93-1.28h133a5,5,0,0,1,5,5v56A5,5,0,0,1,165.2,182.22Z"/><path id="_Clipping_Path_33" data-name="&lt;Clipping Path&gt;" class="cls-6" d="M165.06,182.22h-133a4,4,0,0,1-2.93-1.28L2.22,152a4,4,0,0,1,0-5.45l26.93-29a4,4,0,0,1,2.93-1.28h133a5,5,0,0,1,5,5v56A5,5,0,0,1,165.06,182.22Z"/><path id="_Clipping_Path_34" data-name="&lt;Clipping Path&gt;" class="cls-6" d="M164.91,182.22h-133A4,4,0,0,1,29,180.94L2.07,152a4,4,0,0,1,0-5.45l26.93-29a4,4,0,0,1,2.93-1.28h133a5,5,0,0,1,5,5v56A5,5,0,0,1,164.91,182.22Z"/><path id="_Clipping_Path_35" data-name="&lt;Clipping Path&gt;" class="cls-6" d="M164.77,182.22h-133a4,4,0,0,1-2.93-1.28L1.93,152a4,4,0,0,1,0-5.45l26.93-29a4,4,0,0,1,2.93-1.28h133a5,5,0,0,1,5,5v56A5,5,0,0,1,164.77,182.22Z"/><path id="_Clipping_Path_36" data-name="&lt;Clipping Path&gt;" class="cls-6" d="M164.63,182.22h-133a4,4,0,0,1-2.93-1.28L1.79,152a4,4,0,0,1,0-5.45l26.93-29a4,4,0,0,1,2.93-1.28h133a5,5,0,0,1,5,5v56A5,5,0,0,1,164.63,182.22Z"/><path id="_Clipping_Path_37" data-name="&lt;Clipping Path&gt;" class="cls-6" d="M164.48,182.22H31.5a4,4,0,0,1-2.93-1.28L1.64,152a4,4,0,0,1,0-5.45l26.93-29a4,4,0,0,1,2.93-1.28h133a5,5,0,0,1,5,5v56A5,5,0,0,1,164.48,182.22Z"/><path id="_Clipping_Path_38" data-name="&lt;Clipping Path&gt;" class="cls-6" d="M164.34,182.22h-133a4,4,0,0,1-2.93-1.28L1.5,152a4,4,0,0,1,0-5.45l26.93-29a4,4,0,0,1,2.93-1.28h133a5,5,0,0,1,5,5v56A5,5,0,0,1,164.34,182.22Z"/><path id="_Clipping_Path_39" data-name="&lt;Clipping Path&gt;" class="cls-6" d="M164.2,182.22h-133a4,4,0,0,1-2.93-1.28L1.36,152a4,4,0,0,1,0-5.45l26.93-29a4,4,0,0,1,2.93-1.28h133a5,5,0,0,1,5,5v56A5,5,0,0,1,164.2,182.22Z"/><path id="_Clipping_Path_40" data-name="&lt;Clipping Path&gt;" class="cls-6" d="M164.05,182.22h-133a4,4,0,0,1-2.93-1.28L1.21,152a4,4,0,0,1,0-5.45l26.93-29a4,4,0,0,1,2.93-1.28h133a5,5,0,0,1,5,5v56A5,5,0,0,1,164.05,182.22Z"/><path id="_Clipping_Path_41" data-name="&lt;Clipping Path&gt;" class="cls-6" d="M163.91,182.22h-133A4,4,0,0,1,28,180.94L1.07,152a4,4,0,0,1,0-5.45l26.93-29a4,4,0,0,1,2.93-1.28h133a5,5,0,0,1,5,5v56A5,5,0,0,1,163.91,182.22Z"/><path id="_Path_2" data-name="&lt;Path&gt;" class="cls-7" d="M163.91,182.22h-133A4,4,0,0,1,28,180.94L1.07,152a4,4,0,0,1,0-5.45l26.93-29a4,4,0,0,1,2.93-1.28h133a5,5,0,0,1,5,5v56A5,5,0,0,1,163.91,182.22Z"/><path class="cls-8" d="M30.93,116.27A4,4,0,0,0,28,117.55l-26.93,29a4,4,0,0,0,0,5.45l20.4,21.95a36.23,36.23,0,0,1,7.28-11c22.78-23.33,65.15,1.71,104.82-19.35,8-4.27,18.95-12,29.23-27.28Z"/><path class="cls-9" d="M150.46,103.93h-134a4,4,0,0,1-4-4V42a4,4,0,0,1,4-4h134a4,4,0,0,1,2.93,1.28l26.93,29a4,4,0,0,1,0,5.45l-26.93,29A4,4,0,0,1,150.46,103.93Z"/><path class="cls-9" d="M150.6,103.93h-134a4,4,0,0,1-4-4V42a4,4,0,0,1,4-4h134a4,4,0,0,1,2.93,1.28l26.93,29a4,4,0,0,1,0,5.45l-26.93,29A4,4,0,0,1,150.6,103.93Z"/><path class="cls-9" d="M150.74,103.93h-134a4,4,0,0,1-4-4V42a4,4,0,0,1,4-4h134a4,4,0,0,1,2.93,1.28l26.93,29a4,4,0,0,1,0,5.45l-26.93,29A4,4,0,0,1,150.74,103.93Z"/><path class="cls-9" d="M150.89,103.93h-134a4,4,0,0,1-4-4V42a4,4,0,0,1,4-4h134a4,4,0,0,1,2.93,1.28l26.93,29a4,4,0,0,1,0,5.45l-26.93,29A4,4,0,0,1,150.89,103.93Z"/><path class="cls-9" d="M151,103.93H17a4,4,0,0,1-4-4V42a4,4,0,0,1,4-4H151A4,4,0,0,1,154,39.25l26.93,29a4,4,0,0,1,0,5.45l-26.93,29A4,4,0,0,1,151,103.93Z"/><path class="cls-9" d="M151.17,103.93h-134a4,4,0,0,1-4-4V42a4,4,0,0,1,4-4h134a4,4,0,0,1,2.93,1.28l26.93,29a4,4,0,0,1,0,5.45l-26.93,29A4,4,0,0,1,151.17,103.93Z"/><path class="cls-9" d="M151.32,103.93h-134a4,4,0,0,1-4-4V42a4,4,0,0,1,4-4h134a4,4,0,0,1,2.93,1.28l26.93,29a4,4,0,0,1,0,5.45l-26.93,29A4,4,0,0,1,151.32,103.93Z"/><path class="cls-9" d="M151.46,103.93h-134a4,4,0,0,1-4-4V42a4,4,0,0,1,4-4h134a4,4,0,0,1,2.93,1.28l26.93,29a4,4,0,0,1,0,5.45l-26.93,29A4,4,0,0,1,151.46,103.93Z"/><path class="cls-9" d="M151.6,103.93h-134a4,4,0,0,1-4-4V42a4,4,0,0,1,4-4h134a4,4,0,0,1,2.93,1.28l26.93,29a4,4,0,0,1,0,5.45l-26.93,29A4,4,0,0,1,151.6,103.93Z"/><path class="cls-9" d="M151.75,103.93h-134a4,4,0,0,1-4-4V42a4,4,0,0,1,4-4h134a4,4,0,0,1,2.93,1.28l26.93,29a4,4,0,0,1,0,5.45l-26.93,29A4,4,0,0,1,151.75,103.93Z"/><path class="cls-9" d="M151.89,103.93h-134a4,4,0,0,1-4-4V42a4,4,0,0,1,4-4h134a4,4,0,0,1,2.93,1.28l26.93,29a4,4,0,0,1,0,5.45l-26.93,29A4,4,0,0,1,151.89,103.93Z"/><path class="cls-9" d="M152,103.93h-134a4,4,0,0,1-4-4V42a4,4,0,0,1,4-4H152A4,4,0,0,1,155,39.25l26.93,29a4,4,0,0,1,0,5.45l-26.93,29A4,4,0,0,1,152,103.93Z"/><path class="cls-9" d="M152.18,103.93H18.2a4,4,0,0,1-4-4V42a4,4,0,0,1,4-4h134a4,4,0,0,1,2.93,1.28l26.93,29a4,4,0,0,1,0,5.45l-26.93,29A4,4,0,0,1,152.18,103.93Z"/><path class="cls-9" d="M152.32,103.93h-134a4,4,0,0,1-4-4V42a4,4,0,0,1,4-4h134a4,4,0,0,1,2.93,1.28l26.93,29a4,4,0,0,1,0,5.45l-26.93,29A4,4,0,0,1,152.32,103.93Z"/><path class="cls-9" d="M152.47,103.93h-134a4,4,0,0,1-4-4V42a4,4,0,0,1,4-4h134a4,4,0,0,1,2.93,1.28l26.93,29a4,4,0,0,1,0,5.45l-26.93,29A4,4,0,0,1,152.47,103.93Z"/><path class="cls-9" d="M152.61,103.93h-134a4,4,0,0,1-4-4V42a4,4,0,0,1,4-4h134a4,4,0,0,1,2.93,1.28l26.93,29a4,4,0,0,1,0,5.45l-26.93,29A4,4,0,0,1,152.61,103.93Z"/><path class="cls-9" d="M152.75,103.93h-134a4,4,0,0,1-4-4V42a4,4,0,0,1,4-4h134a4,4,0,0,1,2.93,1.28l26.93,29a4,4,0,0,1,0,5.45l-26.93,29A4,4,0,0,1,152.75,103.93Z"/><path class="cls-9" d="M152.9,103.93h-134a4,4,0,0,1-4-4V42a4,4,0,0,1,4-4h134a4,4,0,0,1,2.93,1.28l26.93,29a4,4,0,0,1,0,5.45l-26.93,29A4,4,0,0,1,152.9,103.93Z"/><path class="cls-9" d="M153,103.93h-134a4,4,0,0,1-4-4V42a4,4,0,0,1,4-4H153A4,4,0,0,1,156,39.25l26.93,29a4,4,0,0,1,0,5.45l-26.93,29A4,4,0,0,1,153,103.93Z"/><path class="cls-9" d="M153.18,103.93H19.2a4,4,0,0,1-4-4V42a4,4,0,0,1,4-4h134a4,4,0,0,1,2.93,1.28l26.93,29a4,4,0,0,1,0,5.45l-26.93,29A4,4,0,0,1,153.18,103.93Z"/><path class="cls-9" d="M153.33,103.93h-134a4,4,0,0,1-4-4V42a4,4,0,0,1,4-4h134a4,4,0,0,1,2.93,1.28l26.93,29a4,4,0,0,1,0,5.45l-26.93,29A4,4,0,0,1,153.33,103.93Z"/><path class="cls-9" d="M153.47,103.93h-134a4,4,0,0,1-4-4V42a4,4,0,0,1,4-4h134a4,4,0,0,1,2.93,1.28l26.93,29a4,4,0,0,1,0,5.45l-26.93,29A4,4,0,0,1,153.47,103.93Z"/><path class="cls-9" d="M153.61,103.93h-134a4,4,0,0,1-4-4V42a4,4,0,0,1,4-4h134a4,4,0,0,1,2.93,1.28l26.93,29a4,4,0,0,1,0,5.45l-26.93,29A4,4,0,0,1,153.61,103.93Z"/><path class="cls-9" d="M153.76,103.93h-134a4,4,0,0,1-4-4V42a4,4,0,0,1,4-4h134a4,4,0,0,1,2.93,1.28l26.93,29a4,4,0,0,1,0,5.45l-26.93,29A4,4,0,0,1,153.76,103.93Z"/><path class="cls-9" d="M153.9,103.93h-134a4,4,0,0,1-4-4V42a4,4,0,0,1,4-4h134a4,4,0,0,1,2.93,1.28l26.93,29a4,4,0,0,1,0,5.45l-26.93,29A4,4,0,0,1,153.9,103.93Z"/><path class="cls-9" d="M154,103.93h-134a4,4,0,0,1-4-4V42a4,4,0,0,1,4-4H154A4,4,0,0,1,157,39.25l26.93,29a4,4,0,0,1,0,5.45l-26.93,29A4,4,0,0,1,154,103.93Z"/><path class="cls-9" d="M154.19,103.93h-134a4,4,0,0,1-4-4V42a4,4,0,0,1,4-4h134a4,4,0,0,1,2.93,1.28l26.93,29a4,4,0,0,1,0,5.45l-26.93,29A4,4,0,0,1,154.19,103.93Z"/><path class="cls-9" d="M154.33,103.93h-134a4,4,0,0,1-4-4V42a4,4,0,0,1,4-4h134a4,4,0,0,1,2.93,1.28l26.93,29a4,4,0,0,1,0,5.45l-26.93,29A4,4,0,0,1,154.33,103.93Z"/><path class="cls-9" d="M154.48,103.93h-134a4,4,0,0,1-4-4V42a4,4,0,0,1,4-4h134a4,4,0,0,1,2.93,1.28l26.93,29a4,4,0,0,1,0,5.45l-26.93,29A4,4,0,0,1,154.48,103.93Z"/><path class="cls-9" d="M154.62,103.93h-134a4,4,0,0,1-4-4V42a4,4,0,0,1,4-4h134a4,4,0,0,1,2.93,1.28l26.93,29a4,4,0,0,1,0,5.45l-26.93,29A4,4,0,0,1,154.62,103.93Z"/><path class="cls-9" d="M154.76,103.93h-134a4,4,0,0,1-4-4V42a4,4,0,0,1,4-4h134a4,4,0,0,1,2.93,1.28l26.93,29a4,4,0,0,1,0,5.45l-26.93,29A4,4,0,0,1,154.76,103.93Z"/><path class="cls-9" d="M154.91,103.93h-134a4,4,0,0,1-4-4V42a4,4,0,0,1,4-4h134a4,4,0,0,1,2.93,1.28l26.93,29a4,4,0,0,1,0,5.45l-26.93,29A4,4,0,0,1,154.91,103.93Z"/><path class="cls-9" d="M155,103.93h-134a4,4,0,0,1-4-4V42a4,4,0,0,1,4-4H155A4,4,0,0,1,158,39.25l26.93,29a4,4,0,0,1,0,5.45l-26.93,29A4,4,0,0,1,155,103.93Z"/><path class="cls-9" d="M155.19,103.93h-134a4,4,0,0,1-4-4V42a4,4,0,0,1,4-4h134a4,4,0,0,1,2.93,1.28l26.93,29a4,4,0,0,1,0,5.45l-26.93,29A4,4,0,0,1,155.19,103.93Z"/><path class="cls-9" d="M155.34,103.93h-134a4,4,0,0,1-4-4V42a4,4,0,0,1,4-4h134a4,4,0,0,1,2.93,1.28l26.93,29a4,4,0,0,1,0,5.45l-26.93,29A4,4,0,0,1,155.34,103.93Z"/><path class="cls-9" d="M155.48,103.93H21.5a4,4,0,0,1-4-4V42a4,4,0,0,1,4-4h134a4,4,0,0,1,2.93,1.28l26.93,29a4,4,0,0,1,0,5.45l-26.93,29A4,4,0,0,1,155.48,103.93Z"/><path class="cls-9" d="M155.62,103.93h-134a4,4,0,0,1-4-4V42a4,4,0,0,1,4-4h134a4,4,0,0,1,2.93,1.28l26.93,29a4,4,0,0,1,0,5.45l-26.93,29A4,4,0,0,1,155.62,103.93Z"/><path class="cls-9" d="M155.77,103.93h-134a4,4,0,0,1-4-4V42a4,4,0,0,1,4-4h134a4,4,0,0,1,2.93,1.28l26.93,29a4,4,0,0,1,0,5.45l-26.93,29A4,4,0,0,1,155.77,103.93Z"/><path class="cls-9" d="M155.91,103.93h-134a4,4,0,0,1-4-4V42a4,4,0,0,1,4-4h134a4,4,0,0,1,2.93,1.28l26.93,29a4,4,0,0,1,0,5.45l-26.93,29A4,4,0,0,1,155.91,103.93Z"/><path class="cls-9" d="M156.05,103.93h-134a4,4,0,0,1-4-4V42a4,4,0,0,1,4-4h134A4,4,0,0,1,159,39.25l26.93,29a4,4,0,0,1,0,5.45l-26.93,29A4,4,0,0,1,156.05,103.93Z"/><path class="cls-9" d="M156.2,103.93h-134a4,4,0,0,1-4-4V42a4,4,0,0,1,4-4h134a4,4,0,0,1,2.93,1.28l26.93,29a4,4,0,0,1,0,5.45l-26.93,29A4,4,0,0,1,156.2,103.93Z"/><path class="cls-10" d="M156.2,103.93h-134a4,4,0,0,1-4-4V42a4,4,0,0,1,4-4h134a4,4,0,0,1,2.93,1.28l26.93,29a4,4,0,0,1,0,5.45l-26.93,29A4,4,0,0,1,156.2,103.93Z"/><polygon class="cls-11" points="90.98 87.9 73.41 70.95 80.51 63.85 90.98 73.69 112.88 52 119.98 59.1 90.98 87.9"/><path class="cls-12" d="M114.18,214.93c-9.54-2.55-19.45-5.46-20.83-11.83h0A135.45,135.45,0,0,0,26.22,220.8a1.2,1.2,0,0,0,.59,2.24H147.56C138.92,221.13,126.84,218.32,114.18,214.93Z"/><polygon class="cls-13" points="110.39 137.29 103.29 130.19 91.34 142.14 79.38 130.19 72.28 137.29 84.23 149.25 72.28 161.2 79.38 168.3 91.34 156.35 103.29 168.3 110.39 161.2 98.44 149.25 110.39 137.29"/></g></g></g></svg>