<svg xmlns="http://www.w3.org/2000/svg" xmlns:xlink="http://www.w3.org/1999/xlink" viewBox="0 0 222.03 197"><defs><style>.cls-1{fill:#ff8b00;}.cls-2{fill:url(#New_Gradient_Swatch_6);}.cls-3{fill:#ff991f;}.cls-4{isolation:isolate;}.cls-5{clip-path:url(#clip-path);}.cls-6{fill:url(#New_Gradient_Swatch_7);}.cls-7{clip-path:url(#clip-path-2);}.cls-8{clip-path:url(#clip-path-3);}.cls-9{fill:#ffc400;}.cls-10{fill:url(#linear-gradient);}.cls-11{fill:url(#linear-gradient-2);}.cls-12{fill:url(#New_Gradient_Swatch_23);}.cls-13,.cls-14,.cls-20{fill:none;stroke-miterlimit:10;stroke-width:2px;}.cls-13{stroke:#ffe380;}.cls-14{stroke:#ff991f;}.cls-15{fill:#0052cc;}.cls-16{fill:#ffe380;}.cls-17,.cls-19{mix-blend-mode:multiply;}.cls-17{fill:url(#New_Gradient_Swatch_24);}.cls-18{fill:url(#linear-gradient-3);}.cls-19{fill:url(#New_Gradient_Swatch_24-2);}.cls-20{stroke:#ffc400;}</style><linearGradient id="New_Gradient_Swatch_6" x1="111.03" y1="13.5" x2="180.76" y2="13.5" gradientUnits="userSpaceOnUse"><stop offset="0" stop-color="#ffab00"/><stop offset="1" stop-color="#ffe380"/></linearGradient><clipPath id="clip-path"><polygon id="_Clipping_Path_" data-name="&lt;Clipping Path&gt;" class="cls-1" points="122.89 183.08 99.18 183.08 106.34 10.18 115.72 10.18 122.89 183.08"/></clipPath><linearGradient id="New_Gradient_Swatch_7" x1="124" y1="183.08" x2="124" y2="13.5" gradientUnits="userSpaceOnUse"><stop offset="0" stop-color="#ffc400"/><stop offset="1" stop-color="#fff0b2"/></linearGradient><clipPath id="clip-path-2"><polygon id="_Clipping_Path_2" data-name="&lt;Clipping Path&gt;" class="cls-2" points="111.03 5.24 180.76 5.24 180.76 13.16 111.03 21.76 111.03 5.24"/></clipPath><clipPath id="clip-path-3"><polygon id="_Clipping_Path_3" data-name="&lt;Clipping Path&gt;" class="cls-3" points="111.03 21.76 41.31 13.16 41.31 5.24 111.03 5.24 111.03 21.76"/></clipPath><linearGradient id="linear-gradient" x1="51.9" y1="183.09" x2="165.94" y2="183.09" gradientUnits="userSpaceOnUse"><stop offset="0" stop-color="#ff991f"/><stop offset="0.76" stop-color="#ffc400"/></linearGradient><linearGradient id="linear-gradient-2" x1="6192.28" y1="7457.14" x2="6195.51" y2="7417.26" gradientTransform="translate(7029.78 -6758.56) rotate(85.38)" gradientUnits="userSpaceOnUse"><stop offset="0" stop-color="#ff991f"/><stop offset="0.75" stop-color="#ffc400"/></linearGradient><linearGradient id="New_Gradient_Swatch_23" x1="110.85" y1="175.16" x2="110.85" y2="175.16" gradientUnits="userSpaceOnUse"><stop offset="0" stop-color="#7a869a"/><stop offset="1" stop-color="#7a869a" stop-opacity="0.1"/></linearGradient><linearGradient id="New_Gradient_Swatch_24" x1="-21.08" y1="101.8" x2="83.16" y2="101.8" gradientUnits="userSpaceOnUse"><stop offset="0" stop-color="#c1c7d0"/><stop offset="1" stop-color="#c1c7d0" stop-opacity="0.1"/></linearGradient><linearGradient id="linear-gradient-3" x1="140.69" y1="94.26" x2="220.82" y2="94.26" gradientUnits="userSpaceOnUse"><stop offset="0.32" stop-color="#0065ff"/><stop offset="1" stop-color="#4c9aff"/></linearGradient><linearGradient id="New_Gradient_Swatch_24-2" x1="117.95" y1="101.8" x2="222.19" y2="101.8" xlink:href="#New_Gradient_Swatch_24"/></defs><title>DevicesBWHAB</title><g class="cls-4"><g id="Layer_2" data-name="Layer 2"><g id="Values"><polygon id="_Clipping_Path_4" data-name="&lt;Clipping Path&gt;" class="cls-1" points="122.89 183.08 99.18 183.08 106.34 10.18 115.72 10.18 122.89 183.08"/><g class="cls-5"><rect class="cls-6" x="111.03" y="13.5" width="25.93" height="169.58"/></g><polygon id="_Clipping_Path_5" data-name="&lt;Clipping Path&gt;" class="cls-2" points="111.03 5.24 180.76 5.24 180.76 13.16 111.03 21.76 111.03 5.24"/><g class="cls-7"><rect class="cls-1" x="118.93" y="10.65" width="61.95" height="15.12"/></g><polygon id="_Clipping_Path_6" data-name="&lt;Clipping Path&gt;" class="cls-3" points="111.03 21.76 41.31 13.16 41.31 5.24 111.03 5.24 111.03 21.76"/><g class="cls-8"><rect class="cls-1" x="41.73" y="10.65" width="61.95" height="15.12"/></g><circle id="_Ellipse_" data-name="&lt;Ellipse&gt;" class="cls-9" cx="110.88" cy="13.89" r="13.89"/><path class="cls-10" d="M51.9,191.18v.24H130a61.1,61.1,0,0,1-13.86-9.79,55.56,55.56,0,0,1-6.12-6.88A113.32,113.32,0,0,0,51.9,191.18Z"/><path class="cls-11" d="M115.79.91a13.89,13.89,0,1,0-4.91,26.88l.36,0a30.82,30.82,0,0,1,1-20.76A28.57,28.57,0,0,1,115.79.91Z"/><line class="cls-12" x1="103.59" y1="175.16" x2="118.11" y2="175.16"/><line class="cls-13" x1="180.39" y1="25.66" x2="140.07" y2="128.69"/><line class="cls-13" x1="180.79" y1="25.66" x2="221.1" y2="128.69"/><line class="cls-14" x1="41.73" y1="25.66" x2="82.05" y2="128.69"/><line class="cls-14" x1="41.34" y1="25.66" x2="1.02" y2="128.69"/><path id="_Clipping_Path_7" data-name="&lt;Clipping Path&gt;" class="cls-15" d="M41.73,130.25c3.49-11.3,16-21.25,30-31A22.74,22.74,0,0,0,75,64.19,21.66,21.66,0,0,0,69.42,60c-6.38-3.13-13-1.25-14.28-.87C45.94,62,42.25,70.46,41.73,71.71c-.52-1.25-4.21-9.73-13.42-12.53-1.25-.38-7.9-2.27-14.28.87a21.66,21.66,0,0,0-5.61,4.14,22.74,22.74,0,0,0,3.32,35.06C25.69,109,38.25,119,41.73,130.25Z"/><circle class="cls-3" cx="41.31" cy="15.51" r="10.26"/><circle class="cls-16" cx="180.76" cy="15.51" r="10.26"/><path class="cls-17" d="M11.75,99.25c13.95,9.75,26.5,19.71,30,31,2.36-7.65,8.89-14.69,17.19-21.46a56.27,56.27,0,0,0-15-9.16c-6.81-2.77-11-2.75-15.25-3.87-7.78-2-16.71-8-25.91-22.4a22.62,22.62,0,0,0,9,25.89Z"/><path id="_Clipping_Path_8" data-name="&lt;Clipping Path&gt;" class="cls-18" d="M180.76,130.25c3.49-11.3,16-21.25,30-31a22.74,22.74,0,0,0,3.32-35.06A21.66,21.66,0,0,0,208.45,60c-6.38-3.13-13-1.25-14.28-.87C185,62,181.28,70.46,180.76,71.71c-.52-1.25-4.21-9.73-13.42-12.53-1.25-.38-7.9-2.27-14.28.87a21.66,21.66,0,0,0-5.61,4.14,22.74,22.74,0,0,0,3.32,35.06C164.72,109,177.27,119,180.76,130.25Z"/><path class="cls-19" d="M150.77,99.25c13.95,9.75,26.5,19.71,30,31,2.36-7.65,8.89-14.69,17.19-21.46a56.27,56.27,0,0,0-15-9.16c-6.81-2.77-11-2.75-15.25-3.87-7.78-2-16.71-8-25.91-22.4a22.62,22.62,0,0,0,9,25.89Z"/><path id="_Clipping_Path_9" data-name="&lt;Clipping Path&gt;" class="cls-3" d="M82,127.62H.63A.63.63,0,0,0,.3,128.8a78.78,78.78,0,0,0,82.08,0,.63.63,0,0,0-.33-1.17Z"/><path id="_Clipping_Path_10" data-name="&lt;Clipping Path&gt;" class="cls-9" d="M221.07,127.62H139.65a.63.63,0,0,0-.33,1.17,78.78,78.78,0,0,0,82.08,0,.63.63,0,0,0-.33-1.17Z"/><circle class="cls-20" cx="180.76" cy="15.51" r="5.44"/><circle class="cls-20" cx="41.31" cy="15.51" r="5.44"/><circle id="_Ellipse_2" data-name="&lt;Ellipse&gt;" class="cls-13" cx="110.88" cy="13.89" r="8.48"/><path id="_Path_" data-name="&lt;Path&gt;" class="cls-9" d="M110.85,174.74a113.35,113.35,0,0,1,59.37,16.68H51.48A113.35,113.35,0,0,1,110.85,174.74Z"/><path class="cls-10" d="M51.9,191.18v.24H130a61.1,61.1,0,0,1-13.86-9.79,55.56,55.56,0,0,1-6.12-6.88A113.32,113.32,0,0,0,51.9,191.18Z"/><path class="cls-3" d="M51.54,191.27H169.09a5.73,5.73,0,0,1,5.73,5.73v0a0,0,0,0,1,0,0h-129a0,0,0,0,1,0,0v0A5.73,5.73,0,0,1,51.54,191.27Z"/></g></g></g></svg>