<svg xmlns="http://www.w3.org/2000/svg" xmlns:xlink="http://www.w3.org/1999/xlink" viewBox="0 0 221.33 203.52"><defs><style>.cls-1{fill:#de350b;}.cls-2{fill:url(#linear-gradient);}.cls-3{isolation:isolate;}.cls-4{clip-path:url(#clip-path);}.cls-19,.cls-5{fill:#dfe1e5;}.cls-5{mix-blend-mode:multiply;}.cls-6{fill:url(#linear-gradient-2);}.cls-7{fill:url(#linear-gradient-3);}.cls-8{fill:#253858;}.cls-9{clip-path:url(#clip-path-2);}.cls-10,.cls-20{fill:none;stroke-linecap:round;stroke-width:2px;}.cls-10{stroke:#66a3ff;stroke-linejoin:round;}.cls-11{fill:url(#linear-gradient-5);}.cls-12{fill:url(#linear-gradient-6);}.cls-13{fill:url(#linear-gradient-7);}.cls-14{fill:url(#linear-gradient-8);}.cls-15{fill:#66a3ff;}.cls-16{fill:url(#linear-gradient-9);}.cls-17{fill:url(#linear-gradient-10);}.cls-18{fill:#ff5630;}.cls-20{stroke:#0065ff;stroke-miterlimit:10;}</style><linearGradient id="linear-gradient" x1="57.8" y1="152.76" x2="163.53" y2="47.02" gradientUnits="userSpaceOnUse"><stop offset="0.23" stop-color="#0065ff"/><stop offset="1" stop-color="#4c9aff"/></linearGradient><clipPath id="clip-path"><path id="_Compound_Clipping_Path_" data-name="&lt;Compound Clipping Path&gt;" class="cls-1" d="M110.66,13.46A76.82,76.82,0,1,1,33.84,90.28a76.91,76.91,0,0,1,76.82-76.82m0-13.46a90.28,90.28,0,1,0,90.28,90.28A90.28,90.28,0,0,0,110.66,0Z"/></clipPath><linearGradient id="linear-gradient-2" x1="12324.65" y1="-5129.6" x2="12366.19" y2="-5129.6" gradientTransform="matrix(-0.7, 0.71, 0.71, 0.7, 12481.76, -5177.17)" gradientUnits="userSpaceOnUse"><stop offset="0" stop-color="#2684ff"/><stop offset="1" stop-color="#0052cc"/></linearGradient><linearGradient id="linear-gradient-3" x1="2318.9" y1="5085.34" x2="2360.44" y2="5085.34" gradientTransform="translate(2038.52 -5177.17) rotate(45.59)" xlink:href="#linear-gradient-2"/><clipPath id="clip-path-2"><path id="_Clipping_Path_" data-name="&lt;Clipping Path&gt;" class="cls-2" d="M159.31,45.44,126,30.72a38,38,0,0,0-30.73,0L62,45.44A27.75,27.75,0,0,0,45.49,70.82v16c0,79.69,12.31,46.68,32.18,58.47a18.59,18.59,0,0,1,8.93,16v12.25a19.19,19.19,0,0,0,19.19,19.19h9.73a19.19,19.19,0,0,0,19.19-19.19V161.36a18.59,18.59,0,0,1,8.93-16c19.88-11.78,32.18,21.22,32.18-58.47v-16A27.75,27.75,0,0,0,159.31,45.44Z"/></clipPath><linearGradient id="linear-gradient-5" x1="139.8" y1="199.71" x2="139.8" y2="102.23" gradientUnits="userSpaceOnUse"><stop offset="0.49" stop-color="#0049b0"/><stop offset="0.94" stop-color="#0065ff"/></linearGradient><linearGradient id="linear-gradient-6" x1="157.98" y1="199.71" x2="157.98" y2="102.23" xlink:href="#linear-gradient-5"/><linearGradient id="linear-gradient-7" x1="58.74" y1="196.43" x2="58.74" y2="102.23" xlink:href="#linear-gradient-5"/><linearGradient id="linear-gradient-8" x1="72.63" y1="196.43" x2="72.63" y2="102.23" xlink:href="#linear-gradient-5"/><linearGradient id="linear-gradient-9" x1="148.04" y1="199.71" x2="148.04" y2="102.23" xlink:href="#linear-gradient-5"/><linearGradient id="linear-gradient-10" x1="64.76" y1="196.43" x2="64.76" y2="102.21" xlink:href="#linear-gradient-5"/></defs><title>DevicesOCNB</title><g class="cls-3"><g id="Layer_2" data-name="Layer 2"><g id="Values"><path id="_Compound_Clipping_Path_2" data-name="&lt;Compound Clipping Path&gt;" class="cls-1" d="M110.66,13.46A76.82,76.82,0,1,1,33.84,90.28a76.91,76.91,0,0,1,76.82-76.82m0-13.46a90.28,90.28,0,1,0,90.28,90.28A90.28,90.28,0,0,0,110.66,0Z"/><g class="cls-4"><path class="cls-5" d="M19.2,65.68a1.87,1.87,0,0,0-1,3.48,17.93,17.93,0,0,1,6.33,6.59,20.6,20.6,0,0,0,35.95,0A19.2,19.2,0,0,1,77.16,65.68Z"/><path class="cls-5" d="M204.71,65.68a1.87,1.87,0,0,1,1,3.48,17.93,17.93,0,0,0-6.33,6.59,20.6,20.6,0,0,1-35.95,0,19.2,19.2,0,0,0-16.66-10.07Z"/></g><path class="cls-6" d="M205.82,51.2a1.87,1.87,0,0,1,1,3.47,17.93,17.93,0,0,0-6.26,6.65,20.6,20.6,0,0,1-35.94.37,19.2,19.2,0,0,0-16.76-9.89Z"/><path class="cls-7" d="M15.51,51.2a1.87,1.87,0,0,0-1,3.47,17.93,17.93,0,0,1,6.26,6.65,20.6,20.6,0,0,0,35.94.37A19.2,19.2,0,0,1,73.47,51.8Z"/><path class="cls-8" d="M218.2,5,215,10a42.09,42.09,0,0,1-35.56,19.57H42A42.09,42.09,0,0,1,6.72,10.39L3.12,4.84A1.69,1.69,0,0,0,0,5.76v17a29.4,29.4,0,0,0,29.4,29.4H191.93a29.4,29.4,0,0,0,29.4-29.4V5.89A1.69,1.69,0,0,0,218.2,5Z"/><path id="_Clipping_Path_2" data-name="&lt;Clipping Path&gt;" class="cls-2" d="M159.31,45.44,126,30.72a38,38,0,0,0-30.73,0L62,45.44A27.75,27.75,0,0,0,45.49,70.82v16c0,79.69,12.31,46.68,32.18,58.47a18.59,18.59,0,0,1,8.93,16v12.25a19.19,19.19,0,0,0,19.19,19.19h9.73a19.19,19.19,0,0,0,19.19-19.19V161.36a18.59,18.59,0,0,1,8.93-16c19.88-11.78,32.18,21.22,32.18-58.47v-16A27.75,27.75,0,0,0,159.31,45.44Z"/><g class="cls-9"><path class="cls-10" d="M56.37,75.52H62A22.08,22.08,0,0,1,84,97.57v5.61"/><path class="cls-8" d="M62,81.12h5.78A10.66,10.66,0,0,1,78.42,91.78v5.78a0,0,0,0,1,0,0h0A16.44,16.44,0,0,1,62,81.12v0a0,0,0,0,1,0,0Z" transform="translate(140.39 178.69) rotate(-180)"/><path class="cls-10" d="M138.89,103.17V97.57a22.08,22.08,0,0,1,22.05-22.05h5.61"/><path class="cls-8" d="M160.94,81.12h0a0,0,0,0,1,0,0v5.78a10.66,10.66,0,0,1-10.66,10.66h-5.78a0,0,0,0,1,0,0v0A16.44,16.44,0,0,1,160.94,81.12Z"/></g><path class="cls-11" d="M134.72,173.62V161.36a18.59,18.59,0,0,1,8.93-16c.45-.27.9-.5,1.34-.73l-9.69-9.69a40.19,40.19,0,0,0-.69,7.35c0,.51,0,1,0,1.52h0v31C134.69,174.36,134.72,174,134.72,173.62Z"/><path class="cls-12" d="M160.78,142.63c8.54.35,13.84-2,14.87-40.37l-1,0a40,40,0,0,0-34.31,19.42l19.78,19.78A12.92,12.92,0,0,0,160.78,142.63Z"/><path class="cls-13" d="M46.52,102.23l-.83,0c.43,16,1.61,25.78,3.45,31.67L71.8,111.25A39.83,39.83,0,0,0,46.52,102.23Z"/><path class="cls-14" d="M77.68,145.32A18.57,18.57,0,0,1,86.6,161V140.48h-.11a39.8,39.8,0,0,0-6.11-19.54L58.67,142.65C63.76,142.8,70.18,140.88,77.68,145.32Z"/><path class="cls-15" d="M111.77,51.56a44.7,44.7,0,0,0,31.71-13.13L126,30.72a38,38,0,0,0-30.73,0l-15.89,7A44.7,44.7,0,0,0,111.77,51.56Z"/><path class="cls-8" d="M78.42,97.57A16.44,16.44,0,0,0,62,81.12v5.78A10.66,10.66,0,0,0,72.63,97.57Z"/><path class="cls-8" d="M144.49,97.57h5.78a10.66,10.66,0,0,0,10.66-10.66V81.12A16.44,16.44,0,0,0,144.49,97.57Z"/><path class="cls-5" d="M171.85,56.52a79.58,79.58,0,0,1,3.31,8.19A27.73,27.73,0,0,0,171.85,56.52Z"/><path class="cls-5" d="M110,91.33l46.94-46.94-12.67-5.61L100.86,82.19,63.47,44.8,62,45.44a27.7,27.7,0,0,0-9.38,6.8L91.72,91.33,71.8,111.25a40.21,40.21,0,0,1,8.58,9.7l20.48-20.48L135.3,134.9a39.76,39.76,0,0,1,5-13.25Z"/><path class="cls-16" d="M160.78,142.63a12.92,12.92,0,0,1-.68-1.2l-19.78-19.78a39.76,39.76,0,0,0-5,13.25L145,144.6C151,141.55,156.34,142.45,160.78,142.63Z"/><path class="cls-5" d="M160.78,142.63a12.92,12.92,0,0,1-.68-1.2l-19.78-19.78a39.76,39.76,0,0,0-5,13.25L145,144.6C151,141.55,156.34,142.45,160.78,142.63Z"/><path class="cls-17" d="M71.8,111.25,49.13,133.92c2.24,7.15,5.46,8.61,9.54,8.73l21.71-21.71A40.21,40.21,0,0,0,71.8,111.25Z"/><path class="cls-5" d="M71.8,111.25,49.13,133.92c2.24,7.15,5.46,8.61,9.54,8.73l21.71-21.71A40.21,40.21,0,0,0,71.8,111.25Z"/><rect class="cls-18" x="104.24" y="-11.85" width="14.95" height="206.34" transform="translate(-31.86 105.74) rotate(-45)"/><rect class="cls-18" x="8.54" y="83.85" width="206.34" height="14.95" transform="translate(-31.86 105.74) rotate(-45)"/><path class="cls-19" d="M91.87,159h37.59a5.24,5.24,0,0,1,5.24,5.24V178a14.8,14.8,0,0,1-14.8,14.8H101.43A14.8,14.8,0,0,1,86.63,178V164.28A5.24,5.24,0,0,1,91.87,159Z"/><path class="cls-8" d="M95.42,170.19h4a7.44,7.44,0,0,1,7.44,7.44v4a0,0,0,0,1,0,0h0a11.48,11.48,0,0,1-11.48-11.48v0A0,0,0,0,1,95.42,170.19Z" transform="translate(202.32 351.86) rotate(-180)"/><path class="cls-8" d="M125.91,170.19h0a0,0,0,0,1,0,0v4a7.44,7.44,0,0,1-7.44,7.44h-4a0,0,0,0,1,0,0v0A11.48,11.48,0,0,1,125.91,170.19Z"/><path class="cls-20" d="M120.56,178.73a13.93,13.93,0,1,1-19.71,0"/></g></g></g></svg>